<svg width="179" height="58" viewBox="0 0 179 58" fill="none" xmlns="http://www.w3.org/2000/svg">
<path d="M3.49561 45V12.9142H14.2673C18.5454 12.9142 21.8151 13.999 24.0764 16.1686C26.3377 18.3382 27.4683 21.5926 27.4683 25.9318V31.9823C27.4683 36.3215 26.3377 39.576 24.0764 41.7456C21.8151 43.9152 18.5454 45 14.2673 45H3.49561ZM9.04188 40.0038H14.359C16.9564 40.0038 18.8663 39.3315 20.0886 37.987C21.3414 36.6424 21.9679 34.702 21.9679 32.1657V25.7943C21.9679 23.1969 21.3414 21.2412 20.0886 19.9272C18.8663 18.5827 16.9564 17.9104 14.359 17.9104H9.04188V40.0038ZM40.7395 45.6417C38.4782 45.6417 36.4461 45.1833 34.6432 44.2666C32.8709 43.3193 31.4652 41.99 30.4262 40.2788C29.4178 38.537 28.9136 36.4591 28.9136 34.045V33.3116C28.9136 30.8975 29.4178 28.8196 30.4262 27.0778C31.4652 25.336 32.8709 24.0067 34.6432 23.09C36.4461 22.1732 38.4782 21.7148 40.7395 21.7148C43.0008 21.7148 45.0176 22.1732 46.79 23.09C48.5624 24.0067 49.9528 25.336 50.9612 27.0778C52.0001 28.8196 52.5196 30.8975 52.5196 33.3116V34.045C52.5196 36.4591 52.0001 38.537 50.9612 40.2788C49.9528 41.99 48.5624 43.3193 46.79 44.2666C45.0176 45.1833 43.0008 45.6417 40.7395 45.6417ZM40.7395 40.9664C42.6647 40.9664 44.2384 40.3552 45.4607 39.1329C46.6831 37.88 47.2942 36.1382 47.2942 33.9075V33.4491C47.2942 31.2184 46.6831 29.4918 45.4607 28.2695C44.2384 27.0167 42.6647 26.3902 40.7395 26.3902C38.8144 26.3902 37.2406 27.0167 36.0183 28.2695C34.796 29.4918 34.1849 31.2184 34.1849 33.4491V33.9075C34.1849 36.1382 34.796 37.88 36.0183 39.1329C37.2406 40.3552 38.8144 40.9664 40.7395 40.9664ZM54.916 45V22.3566H60.1873V45H54.916ZM57.5287 19.4688C56.5814 19.4688 55.7564 19.1633 55.0535 18.5521C54.3813 17.9104 54.0451 17.07 54.0451 16.0311C54.0451 14.9921 54.3813 14.167 55.0535 13.5559C55.7564 12.9142 56.5814 12.5933 57.5287 12.5933C58.5371 12.5933 59.3622 12.9142 60.0039 13.5559C60.6762 14.167 61.0123 14.9921 61.0123 16.0311C61.0123 17.07 60.6762 17.9104 60.0039 18.5521C59.3622 19.1633 58.5371 19.4688 57.5287 19.4688ZM63.6591 45V22.3566H68.8386V25.5193H69.6179C70.0151 24.6637 70.7332 23.8539 71.7722 23.09C72.8112 22.326 74.3849 21.944 76.4934 21.944C78.2352 21.944 79.7784 22.3413 81.1229 23.1358C82.4675 23.9303 83.5064 25.0304 84.2398 26.436C85.0038 27.8417 85.3858 29.5071 85.3858 31.4323V45H80.1145V31.8448C80.1145 30.0113 79.6561 28.6515 78.7394 27.7653C77.8532 26.8486 76.5851 26.3902 74.9349 26.3902C73.0709 26.3902 71.6041 27.0167 70.5346 28.2695C69.4651 29.4918 68.9303 31.2489 68.9303 33.5408V45H63.6591ZM99.6059 45.6417C97.3447 45.6417 95.3126 45.1528 93.5096 44.1749C91.7373 43.1665 90.3163 41.715 89.2468 39.8204C88.2078 37.8953 87.6883 35.5423 87.6883 32.7615V25.1526C87.6883 20.9967 88.8495 17.8187 91.1719 15.6185C93.4944 13.3878 96.6113 12.2724 100.523 12.2724C104.434 12.2724 107.444 13.3267 109.553 15.4352C111.661 17.5131 112.715 20.3245 112.715 23.8692V24.0525H107.307V23.6858C107.307 22.4635 107.062 21.3634 106.573 20.3856C106.084 19.4077 105.336 18.6438 104.327 18.0937C103.319 17.5131 102.051 17.2228 100.523 17.2228C98.2614 17.2228 96.4738 17.9257 95.1598 19.3313C93.8763 20.7064 93.2346 22.6163 93.2346 25.0609V32.8532C93.2346 35.2673 93.8763 37.1924 95.1598 38.6287C96.4738 40.0649 98.292 40.783 100.614 40.783C102.937 40.783 104.633 40.1566 105.702 38.9037C106.772 37.6508 107.307 36.0465 107.307 34.0908V33.5408H99.1934V28.8654H112.715V45H107.673V41.8373H106.894C106.65 42.3873 106.268 42.9679 105.748 43.5791C105.229 44.1597 104.48 44.6486 103.502 45.0458C102.555 45.4431 101.256 45.6417 99.6059 45.6417ZM124.41 45.3667C122.668 45.3667 121.125 44.9847 119.78 44.2208C118.436 43.4263 117.397 42.3262 116.663 40.9205C115.93 39.4843 115.563 37.8189 115.563 35.9243V22.3566H120.789V35.5118C120.789 37.3452 121.232 38.7051 122.118 39.5912C123.035 40.4774 124.318 40.9205 125.968 40.9205C127.832 40.9205 129.299 40.3094 130.369 39.087C131.469 37.8647 132.019 36.1076 132.019 33.8158V22.3566H137.244V45H132.11V41.8373H131.331C130.934 42.6623 130.201 43.4568 129.131 44.2208C128.092 44.9847 126.518 45.3667 124.41 45.3667ZM149.998 45.6417C148.164 45.6417 146.453 45.1986 144.864 44.3124C143.275 43.3957 142.007 42.0664 141.059 40.3246C140.112 38.5828 139.638 36.4896 139.638 34.045V33.3116C139.638 30.867 140.112 28.7737 141.059 27.0319C142.007 25.2901 143.26 23.9761 144.818 23.09C146.407 22.1732 148.134 21.7148 149.998 21.7148C151.403 21.7148 152.595 21.8829 153.573 22.2191C154.551 22.5552 155.33 22.983 155.911 23.5025C156.522 24.022 156.995 24.5873 157.331 25.1985H158.111V12.9142H163.336V45H158.202V42.0206H157.423C156.873 42.9373 156.033 43.7777 154.902 44.5416C153.771 45.275 152.137 45.6417 149.998 45.6417ZM151.556 41.058C153.451 41.058 155.024 40.4469 156.277 39.2245C157.53 37.9717 158.157 36.1993 158.157 33.9075V33.4491C158.157 31.1267 157.53 29.3543 156.277 28.132C155.055 26.9097 153.481 26.2985 151.556 26.2985C149.661 26.2985 148.072 26.9097 146.789 28.132C145.536 29.3543 144.91 31.1267 144.91 33.4491V33.9075C144.91 36.1993 145.536 37.9717 146.789 39.2245C148.072 40.4469 149.661 41.058 151.556 41.058Z" fill="#2B2B2B"/>
<path d="M171.682 14.4023V20.7403H173.674C175.349 20.7403 176.29 19.8982 176.29 18.1598V16.9828C176.29 15.2444 175.349 14.4023 173.674 14.4023H171.682ZM172.578 15.2082H173.683C174.814 15.2082 175.394 15.7786 175.394 16.9556V18.187C175.394 19.355 174.833 19.9345 173.683 19.9345H172.578V15.2082Z" fill="#2B2B2B"/>
<path d="M169.418 15.8625C169.418 16.2699 169.726 16.5687 170.124 16.5687C170.532 16.5687 170.83 16.2699 170.83 15.8625C170.83 15.455 170.532 15.1562 170.124 15.1562C169.726 15.1562 169.418 15.455 169.418 15.8625ZM169.418 19.1944C169.418 19.6019 169.726 19.9007 170.124 19.9007C170.532 19.9007 170.83 19.6019 170.83 19.1944C170.83 18.787 170.532 18.4882 170.124 18.4882C169.726 18.4882 169.418 18.787 169.418 19.1944Z" fill="#2B2B2B"/>
<path fill-rule="evenodd" clip-rule="evenodd" d="M172.889 12.3644C170.014 12.3644 167.683 14.6953 167.683 17.5706C167.683 20.4459 170.014 22.7767 172.889 22.7767C175.764 22.7767 178.095 20.4459 178.095 17.5706C178.095 14.6953 175.764 12.3644 172.889 12.3644ZM166.777 17.5706C166.777 14.1952 169.514 11.459 172.889 11.459C176.264 11.459 179.001 14.1952 179.001 17.5706C179.001 20.9459 176.264 23.6822 172.889 23.6822C169.514 23.6822 166.777 20.9459 166.777 17.5706Z" fill="#2B2B2B"/>
</svg>
