<?xml version="1.0" encoding="utf-8"?>
<!-- Generator: Adobe Illustrator 25.2.1, SVG Export Plug-In . SVG Version: 6.00 Build 0)  -->
<svg version="1.1" id="Layer_2" xmlns="http://www.w3.org/2000/svg" xmlns:xlink="http://www.w3.org/1999/xlink" x="0px" y="0px"
	 viewBox="0 0 335.7 165.1" style="enable-background:new 0 0 335.7 165.1;" xml:space="preserve">
<style type="text/css">
	.st0{fill:#1B1BDD;}
</style>
<g>
	<g>
		<path class="st0" d="M167.6,46c-1.3-2.3-3.2-4.2-5.5-5.4c-2.7-1.4-5.7-2.1-8.8-2h-17.9v41l9.6,5.1V69.3h8.1
			c3.1,0.1,6.2-0.5,8.9-1.9c2.4-1.2,4.3-3.1,5.6-5.4c1.3-2.4,2-5.2,2-8C169.6,51.3,168.9,48.5,167.6,46z M158.7,57.9
			c-0.6,1.1-1.5,2.1-2.7,2.7c-1.4,0.7-3,1-4.6,1h-6.5V46.5h6.5c1.6-0.1,3.2,0.3,4.6,0.9c1.2,0.6,2.1,1.5,2.7,2.6
			C159.9,52.5,159.9,55.4,158.7,57.9z"/>
		<path class="st0" d="M182.4,96.6c-1.1,0-2.2-0.1-3.3-0.3c-0.9-0.1-1.7-0.4-2.6-0.7l2.1-7.1c1.3,0.5,2.8,0.6,4.2,0.4
			c1.3-0.4,2.3-1.4,2.7-2.7l0.6-1.4l-12.2-34.9h9.9l7,24.9h0.4l7.1-24.9h10L195,87.6c-0.6,1.7-1.5,3.3-2.6,4.8
			c-1.1,1.4-2.5,2.4-4.1,3.1C186.5,96.3,184.4,96.7,182.4,96.6z"/>
		<path class="st0" d="M245.4,84.6c-3.1,0.1-6.2-0.7-8.9-2.2c-2.5-1.5-4.5-3.6-5.8-6.2c-1.4-2.9-2.1-6-2-9.2c-0.1-3.2,0.6-6.3,2-9.2
			c1.3-2.6,3.3-4.7,5.8-6.1c5.6-2.9,12.2-2.9,17.8,0c2.5,1.5,4.5,3.6,5.8,6.1c1.4,2.9,2.1,6,2,9.2c0.1,3.2-0.6,6.3-2,9.2
			c-1.3,2.6-3.3,4.7-5.8,6.2C251.5,83.9,248.5,84.7,245.4,84.6z M245.4,77.3c1.4,0.1,2.9-0.4,4-1.4c1.1-1,1.9-2.2,2.4-3.7
			c1.1-3.4,1.1-7.1,0-10.6c-0.4-1.4-1.3-2.7-2.4-3.7c-1.1-0.9-2.5-1.4-3.9-1.3c-1.4,0-2.9,0.4-4,1.3c-1.1,1-2,2.2-2.4,3.7
			c-1.1,3.4-1.1,7.1,0,10.6c0.4,1.4,1.3,2.7,2.4,3.7C242.5,76.8,244,77.3,245.4,77.3L245.4,77.3z"/>
		<path class="st0" d="M277.5,64.3V84H268v-34h9v6h0.4c0.7-1.9,2-3.6,3.8-4.7c1.9-1.2,4.2-1.8,6.5-1.8c2.2,0,4.3,0.5,6.2,1.5
			c1.8,1,3.2,2.6,4.1,4.5c1,2.1,1.5,4.5,1.5,6.8V84h-9.4V64c0.1-1.8-0.5-3.5-1.6-4.9c-1.2-1.2-2.8-1.8-4.5-1.8
			c-1.2,0-2.3,0.3-3.3,0.8c-1,0.5-1.8,1.4-2.3,2.4C277.7,61.7,277.4,63,277.5,64.3z"/>
		<path class="st0" d="M334.9,59.6l-8.6,0.5c-0.1-0.7-0.5-1.4-0.9-2c-0.5-0.6-1.2-1.1-1.9-1.4c-0.9-0.4-1.9-0.6-2.8-0.5
			c-1.3,0-2.6,0.3-3.7,0.9c-0.9,0.5-1.5,1.4-1.5,2.4c0,0.8,0.4,1.5,1,2c1,0.7,2.1,1.2,3.3,1.4l6.2,1.2c2.7,0.4,5.3,1.5,7.4,3.3
			c1.6,1.5,2.5,3.7,2.4,5.9c0,2.1-0.7,4.2-2,5.9c-1.4,1.8-3.3,3.1-5.3,3.9c-2.5,1-5.1,1.5-7.8,1.4c-4.5,0-8.1-0.9-10.7-2.8
			c-2.6-1.8-4.3-4.6-4.7-7.7l9.3-0.5c0.2,1.3,1,2.4,2,3.1c1.2,0.8,2.7,1.1,4.1,1.1c1.4,0.1,2.8-0.3,4-1c0.9-0.5,1.5-1.4,1.5-2.5
			c0-0.8-0.4-1.6-1.1-2.1c-1-0.7-2.1-1.1-3.3-1.3l-5.9-1.2c-2.8-0.4-5.3-1.6-7.4-3.5c-1.6-1.7-2.5-3.9-2.4-6.3c0-2,0.6-4,1.8-5.6
			c1.3-1.7,3-2.9,5-3.7c2.4-0.9,5-1.4,7.6-1.3c4.3,0,7.7,0.9,10.1,2.7C333.1,53.9,334.6,56.6,334.9,59.6z"/>
		<path class="st0" d="M213.3,84V38.6h9.4V84H213.3z"/>
	</g>
	<g>
		<path class="st0" d="M65.8,34.9L42.2,22.2c-0.3,0.5-0.5,1.2-0.5,1.8v14.6l8.6,4.6c1.1,0.6,1.8,1.8,1.8,3V135l14.1,7.5
			c0.5,0.2,1,0.4,1.5,0.4v-105C67.6,36.6,66.9,35.5,65.8,34.9z"/>
		<path class="st0" d="M107.5,12.7L83.8,0c-0.3,0.5-0.5,1.2-0.5,1.8v14.6l8.6,4.6c1.1,0.6,1.8,1.8,1.8,3v88.7l14.1,7.5
			c0.5,0.2,1,0.4,1.5,0.4v-105C109.3,14.4,108.6,13.3,107.5,12.7z"/>
		<path class="st0" d="M24.2,57.1L0.5,44.4C0.2,44.9,0,45.6,0,46.2l0.1,103.4c0,1.3,0.7,2.4,1.8,3l22.5,12.1c0.5,0.2,1,0.4,1.5,0.4
			v-105C26,58.8,25.3,57.6,24.2,57.1z"/>
	</g>
</g>
</svg>
