<svg id="Republic" xmlns="http://www.w3.org/2000/svg" width="230.5" height="60.816" viewBox="0 0 230.5 60.816">
  <path id="路径_3584" data-name="路径 3584" d="M31.53.122a18.467,18.467,0,0,1,4.682,35.867L54.725,60.816H.039V0H28.77C29.776,0,30.691.046,31.53.122Z" transform="translate(0.022)" fill="#157eff"/>
  <path id="路径_3585" data-name="路径 3585" d="M35.653,60.816H0V0L54.365,60.816Z" fill="#157eff"/>
  <path id="路径_3586" data-name="路径 3586" d="M54.747,54.342H0l27.19-42.47Z" transform="translate(0 6.474)" fill="#00bdff"/>
  <path id="路径_3587" data-name="路径 3587" d="M0,35.2V0H15.28L38.109,35.18Z" fill="#1560fa"/>
  <path id="路径_3588" data-name="路径 3588" d="M10.618,28.722,21.4,11.872l10.935,16.85Z" transform="translate(5.79 6.474)" fill="#00efe9"/>
  <path id="路径_3589" data-name="路径 3589" d="M45.152,54.342H24.809L17.6,11.872Z" transform="translate(9.595 6.474)" fill="rgba(21,126,255,0.5)"/>
  <path id="路径_3590" data-name="路径 3590" d="M54.546,15.5v6.74H58.48c3.05,0,4.453-1.525,4.407-3.416S61.362,15.5,58.48,15.5Zm4.041-5.048c5.81,0,9.623,3.507,9.623,8.372s-2.623,7.5-5.6,8.113l6.1,11.026h-6.1L56.971,27.641H54.546V37.965h-5.49V10.515ZM76.719,26.573h8.448a4.239,4.239,0,0,0-8.448,0m13.6,1.769a14.673,14.673,0,0,1-.091,1.723H76.7a4.575,4.575,0,0,0,4.88,4.026,7.732,7.732,0,0,0,4.819-1.83l3.05,3.309a11.59,11.59,0,0,1-8.128,2.882,9.424,9.424,0,0,1-9.912-9.973c0-5.993,3.934-10.08,9.653-10.08s9.257,4.072,9.272,10m9.348.031a4.926,4.926,0,1,0,9.821,0,4.926,4.926,0,1,0-9.821,0m15.1,0c0,5.719-3.98,10.019-9.241,10.019a6.984,6.984,0,0,1-5.658-2.47v9.851H94.82V18.948h5.063v2.1a6.923,6.923,0,0,1,5.688-2.608c5.276,0,9.257,4.3,9.257,10.019m21.914,1.388c0,6.008-4.255,8.616-9.013,8.616s-9.043-2.592-9.043-8.616v-10.9h5.139V29.425c0,3.05,1.677,4.285,3.9,4.285s3.9-1.235,3.9-4.285V18.948h5.124Zm9.958-1.418a4.926,4.926,0,1,0,9.821,0,4.926,4.926,0,1,0-9.821,0m15.1,0c0,5.719-3.98,10.019-9.241,10.019a6.969,6.969,0,0,1-5.719-2.592v2.1H141.82V9.661h5.124V20.9a6.893,6.893,0,0,1,5.6-2.5c5.276,0,9.257,4.3,9.257,10.019" transform="translate(26.751 5.268)"/>
  <path id="路径_3591" data-name="路径 3591" d="M124.727,37.965h5.14V9.661h-5.14Z" transform="translate(68.015 5.268)"/>
  <path id="路径_3592" data-name="路径 3592" d="M131.8,38.067h5.139V19.051H131.8Zm5.825-25.284a3.263,3.263,0,1,1-.95-2.348A3.279,3.279,0,0,1,137.63,12.783ZM158.949,22.1l-3.706,3.05a5.292,5.292,0,0,0-4.011-1.86,4.865,4.865,0,0,0-4.788,5.246,4.834,4.834,0,0,0,4.773,5.246,5.581,5.581,0,0,0,4.148-1.921l3.66,3.05a9.409,9.409,0,0,1-7.625,3.584,9.668,9.668,0,0,1-10.156-10.019A9.684,9.684,0,0,1,151.4,18.456a9.333,9.333,0,0,1,7.625,3.6" transform="translate(71.475 5.166)"/>
</svg>
