<?xml version="1.0" encoding="utf-8"?>
<!-- Generator: Adobe Illustrator 25.2.0, SVG Export Plug-In . SVG Version: 6.00 Build 0)  -->
<svg version="1.1" id="Layer_1" xmlns="http://www.w3.org/2000/svg" xmlns:xlink="http://www.w3.org/1999/xlink" x="0px" y="0px"
	 viewBox="0 0 1379.6 354.7" style="enable-background:new 0 0 1379.6 354.7;" xml:space="preserve">
<style type="text/css">
	.st0{fill:#000;}
</style>
<g>
	<g>
		<g>
			<path class="st0" d="M386.7,183.1h-60.8v-15.7h60.4c2.6-39.6,32.8-70.5,74.8-70.5V23c-63.9,0-118.2,35.9-135.3,103V71l0,0
				c0,0,0-0.2,0-0.4v-3c0.4-6.9,3.7-22.3,24.7-29.4l0.1-16.6l-119.2,3.1l0.9,16.5c22.7,6.4,25.9,23.2,26.3,29.3l-2,130.2
				C245.5,159.9,207,149,207,149s25.5-21.6,23.6-74.3C228.1,7.9,150.6-14.8,5.4,9.5L3.5,26.9c0,0,41.5-5,41.5,46.6l-6.1,214.5
				c0,9-1.9,39.5-38.9,46.4v20.2c0,0,223.2-24.6,254-88.8l-0.4,10.8c0,0,0.5,22.7-25.6,32.1l-0.5,16.6H352l-0.5-16.6
				c-21.1-7.8-25.6-23.1-25.6-32.1v-64.5c16.2,55.8,66.2,97.3,126.5,100.8v-67.9C416.2,242,390.8,218.6,386.7,183.1z M114.8,72.7
				c12.4-1.5,14.8-1.4,25,3.9c19.5,10.2,22.7,45.9,5,59.2c-8.7,6.5-20.7,10.4-28.6,11.9L114.8,72.7z M118.5,269.3l-1.7-79.2
				c35.4-3.2,49.8-0.6,56.2,15.8C193.6,259.5,118.5,269.3,118.5,269.3z"/>
			<path class="st0" d="M480,180.4l106.1-4.5v-15.6l-108.6-2.4c-3.7-5.9-11.2-8-16.6-7.8c-11.7,0.4-20.9,10.2-20.5,21.9
				c0.3,7.9,4.8,14.6,11.3,18.1l2,41.3h11.8l4.6-40.6C472.3,189.8,478.4,188,480,180.4z M460.5,180.3c-4.9,0-8.9-4-8.9-8.9
				c0-4.9,4-8.9,8.9-8.9c4.9,0,8.9,4,8.9,8.9C469.4,176.3,465.4,180.3,460.5,180.3z"/>
			<path class="st0" d="M1140,50.6c4.4-20.2,18.3-21.9,18.3-21.9l-0.4-17l-101.1,2.9h-7.8l-42.2,100l-48.6-100l-85.9-2.9l-0.4,17
				c0,0,20.7,2.7,19.6,38.2l-3.3,190.4c-0.9,9.8-4.3,24-16.1,29.5l-0.5,15.4l99.9-2l-1.6-15.9c-15.6,0-15.8-34.1-15.8-36.4l0-0.1v0
				l0.5-101.5l52.7,73.4l59.7-101.6l-6.2,138.9c-1.1,9-5.3,23.9-21.6,28.6l-0.3,16.6l104.9,5.2v-18c-17.5-0.4-15.6-37.4-15.6-37.5
				L1140,50.6z"/>
			<path class="st0" d="M1361.2,236.4l-16.3-0.8c0,0-5.7,37.5-32.7,33.5l-63.7-4.2l3.5-71.4l16.2,1.9c28,6.2,28.9,24.7,28.9,24.7
				l19,3.2l11.7-100.8l-20.1-1.9c-2.6,10.9-17.6,19.4-29,18.8l-24-2.7l3.7-76.1l23-1.1l0-0.1l19.7,0.2l0,0.1c0,0,44.6,0.4,41.2,47.3
				l21.5,1.7l-2.6-48.5l0.2,0l-0.9-14.8l-2-38.2l-0.4,0l0-0.1l-86.6-1.3l-102.4-3l-1.2,16.5c17.8,4.7,19,29.7,18.8,40.1l-0.3,4.6
				l-11.8,212.3c-1.7,12.5-6.8,28.4-21.2,30l-1.4,20.5l118.2,12.7l109.6,12.2L1361.2,236.4z"/>
			<path class="st0" d="M850.8,91.5c1.1-12.1,7.4-22.5,27.5-27.8l2.4-20.5L766.8,32.8l-1.3,20.6c17.8,8.3,22.8,21.9,22,31.6
				l-16.6,182.8c-0.7,8.1-7.8,22.4-27.4,27.5l-1.9,15.6l114,10.3l0.9-15.7c-19.4-9.1-23-22.4-22.1-32.5L850.8,91.5z"/>
			<path class="st0" d="M772.3,18.4l-245.1,5.9v61.3l0,0l0,22.9L543,108c5.7-19.3,18.7-23.9,25.8-24.9l4.3-0.3c0.2,0,0.4,0,0.4,0
				l0,0l53.4-3.3l-5.7,183.3l-0.2,4.6c-0.8,7.2-4.7,21.2-22,28.6l1.2,15.7l127.1-10.6l-1-15.7c-30.6-4.5-28.3-45.1-28.3-45.1l0,0
				L701.5,73l24.2-0.2c6.9-0.2,31.1,1.1,30.6,32.4l16.1,0.5V18.4z"/>
		</g>
		<path class="st0" d="M529.2,185.6c-0.9,33.9-27.7,57.6-61,59.6V313c24.9-1.3,46.6-8.5,64.4-20.6l0,0c0.9-0.7,1.8-1.3,2.7-1.9
			c0.1,0,0.1-0.1,0.2-0.1c29.3-19.4,33.5,14.3,33.5,14.3h17.2V183.4L529.2,185.6z"/>
	</g>
</g>
</svg>
